<?xml version="1.0" encoding="utf-8"?>
<!-- Generator: Adobe Illustrator 27.5.0, SVG Export Plug-In . SVG Version: 6.00 Build 0)  -->
<svg version="1.1" id="Capa_1" xmlns="http://www.w3.org/2000/svg" xmlns:xlink="http://www.w3.org/1999/xlink" x="0px" y="0px"
	 viewBox="0 0 2122 2122" style="enable-background:new 0 0 2122 2122;" xml:space="preserve">
<g>
	<path style="fill:#BFD1DA;" d="M2030.515,826.883c-3.148-8.977-7.389-17.418-10.227-26.699c-1.983-6.487-4.612-12.129-7.46-17.837
		c-1.417-2.84-2.872-5.695-4.365-8.682c-1.941-3.888-3.327-7.681-4.765-11.342c-0.96-2.444-1.939-4.828-3.123-7.143
		c-0.59-1.157-1.23-2.299-1.944-3.42c-1.427-2.244-3.147-4.414-5.335-6.497c-7.04-6.706-10.424-14.297-14.58-22.244
		c-0.94-1.798-1.907-3.608-2.979-5.435c-0.461-0.785-1.004-1.484-1.491-2.244c-6.743-10.551-15.805-18.792-25.805-26.36
		c-6.434-4.87-13.225-9.489-19.971-14.332c-12.651-9.084-24.777-18.879-35.442-29.676c-2.726-2.76-5.323-5.608-7.842-8.504
		c-2.073-2.38-4.078-4.799-5.99-7.277c-0.743-0.96-1.462-1.934-2.178-2.909c-1.983-2.704-3.859-5.469-5.63-8.295
		c-4.022-6.412-7.469-13.143-10.217-20.237c-1.152-2.969-2.227-5.98-3.123-9.079c-0.697-2.407-1.313-4.855-1.846-7.342
		c-2.219-10.348-5.666-19.605-9.535-28.845c-1.547-3.695-3.162-7.389-4.792-11.148c-0.816-1.88-1.637-3.776-2.453-5.698
		c-2.835-6.667-3.764-13.654-4.131-20.738c-0.124-2.363-0.185-4.736-0.232-7.113c-0.073-3.564-0.119-7.138-0.304-10.689
		c-0.119-2.256-0.3-4.502-0.575-6.736c-0.445-3.627-1.149-7.218-2.309-10.738c-0.894-2.709-1.657-5.496-2.331-8.339
		c-2.03-8.531-3.277-17.556-4.906-26.431c-0.543-2.957-1.128-5.897-1.798-8.796c-2.012-8.697-4.792-17.025-9.501-24.334
		c-1.647-2.558-3.776-5.288-6.236-7.995c-7.386-8.12-17.783-16.027-27.274-18.411c-1.086-0.273-2.158-0.59-3.218-0.94
		c-2.117-0.699-4.183-1.523-6.241-2.368c-4.117-1.688-8.193-3.454-12.548-4.451c-1.089-0.248-2.195-0.449-3.325-0.587
		c-2.974-0.365-5.907-0.592-8.828-0.797l-0.039-0.003h0.007c-5.934-0.414-11.813-0.716-17.82-1.747
		c-9.895-1.698-19.88-0.199-29.681-0.723c-1.32-0.07-2.565-0.316-3.793-0.555c-5.901-6.809-11.937-13.562-18.263-20.195
		c-105.181-110.294-261.848-171.873-417.035-197.982c-13.084-15.418-31.094-23.057-47.944-35.632
		c-12.368-9.235-20.025-9.581-34.957-12.198c-20.378-3.566-36.904-9.376-58.122-9.317c-41.803,0.112-83.908,0.273-125.698-1.257
		c-45.908-1.681-90.383,2.2-134.485,15.038c-28.039,8.16-36.862,10.667-57.274,32.97c-6.826,7.457-14.044,13.712-20.955,20.014
		c-33.384,7.359-66.375,16.487-98.747,27.893c-137.05,48.282-261.169,148.463-356.107,256.056
		c-46.957,53.215-84.197,113.873-116.509,176.548c-26.151,50.724-66.977,104.441-83.079,158.232
		c-41.181,137.574-24.85,288.37-7.606,428.335c6.846,55.557,18.078,110.984,34.675,164.653c-3.118,4.694-6.621,9.03-10.504,13.695
		c-9.842,11.827-16.67,25.091-26.285,37.006c-1.333,1.649-2.716,3.271-4.168,4.862c-6.48,7.091-11.24,14.556-14.616,22.326
		c-0.205,0.467-0.417,0.933-0.609,1.403c-0.397,0.965-0.765,1.934-1.118,2.909c-0.261,0.714-0.509,1.432-0.745,2.151
		c-0.273,0.831-0.543,1.659-0.785,2.497c-0.282,0.964-0.528,1.937-0.772,2.909c-0.161,0.646-0.336,1.289-0.48,1.939
		c-0.368,1.659-0.692,3.328-0.952,5.011c-0.322,2.105-0.675,4.409-0.972,6.782c-0.334,2.675-0.602,5.438-0.665,8.149
		c-0.029,1.277-0.015,2.541,0.056,3.776c0.07,1.232,0.2,2.433,0.399,3.588c0.4,2.307,1.084,4.424,2.156,6.209
		c1.924,3.208,4.066,6.261,6.177,9.347c2.115,3.086,4.2,6.212,6.012,9.571c1.903,3.515,4.034,6.592,6.317,9.559
		c2.283,2.965,4.714,5.822,7.211,8.901c2.88,3.552,4.899,7.169,7.267,10.499c1.184,1.664,2.456,3.257,3.961,4.736
		c1.508,1.476,3.252,2.838,5.384,4.039c2.105,1.186,3.925,2.504,5.571,3.919c0.824,0.706,1.603,1.437,2.351,2.188
		c3.744,3.754,6.729,7.99,10.626,12.129c5.886,6.248,13.087,10.684,20.941,14.382c5.888,2.772,12.144,5.13,18.485,7.522
		c2.112,0.797,4.234,1.598,6.358,2.419c7.956,3.079,15.759,6.455,23.179,10.248c5.564,2.843,10.916,5.919,15.958,9.284
		c8.404,5.605,15.951,12.003,22.202,19.432c5.001,5.941,9.174,12.546,12.292,19.927c5.191,12.285,12.682,21.756,20.253,32.516
		c2.188,3.114,3.676,6.504,4.794,10.044c2.236,7.079,2.987,14.755,4.901,21.995c0.96,3.62,2.207,7.128,4.078,10.4
		c3.34,5.847,5.785,12.48,8.231,19.164c4.08,11.142,8.166,22.424,16.431,30.426c6.94,6.719,20.763,14.09,31.927,14.081
		c0.96,0,1.91,0.036,2.855,0.102c6.614,0.453,12.916,2.234,19.754,1.432l0.048-0.007c2.56-0.302,5.07-0.701,7.564-1.115l0.022-0.005
		h-0.003c5.094-0.848,10.124-1.776,15.359-2.156c8.626-0.626,16.908-3.776,25.301-5.303c3.615-0.658,6.853,0.251,10.299-2.448
		c8.105,6.455,16.312,12.74,24.69,18.718c87.666,62.575,190.611,96.115,293.515,126.775c39.396,11.737,79.703,21.04,120.492,27.807
		c2.429,2.533,4.894,5.267,7.332,8.107l-0.003,0.036c4.066,4.729,8.014,9.684,11.377,14.263l0.024,0.034
		c1.121,1.527,2.176,3.011,3.145,4.433l0.607,0.777v-0.002l0.003,0.002c8.28,12.01,23.386,18.546,42.299,21.618
		c35.781,5.817,53.179-8.821,84.59-20.485c31.186-11.581,64.802,2.843,93.084,16.327c34.75,16.568,57.832,22.811,95.337,13.896
		c17.941-4.266,31.035-0.875,48.699,0.984c18.636,1.961,38.867-3.632,56.555-9.33c30.612-9.863,68.202-44.302,76.945-80.706h-0.003
		l0.003-0.002c1.269-3.189,2.271-6.585,3.254-10.124c0.984-3.54,1.949-7.218,3.148-10.97c1.532-4.801,3.169-9.856,4.921-14.921
		c72.146-25.315,144.714-53.108,201.842-101.885c46.328-39.557,86.353-83.313,120.83-130.46c3.552-0.648,6.904-1.24,9.876-1.634
		c0.463-0.061,0.896-0.161,1.352-0.229c25.617-3.939,40.996-21.167,62.263-34.302c13.133-8.112,16.27-15.103,24.187-28.034
		c10.806-17.64,22.28-30.872,30.025-50.629c15.257-38.921,30.58-78.139,47.357-116.443c18.431-42.078,31.167-84.867,35.432-130.602
		c2.712-29.077,3.623-38.205-9.617-65.383c-4.446-9.121-7.613-18.161-10.94-26.936l0.007-0.004l-0.463-1.192
		c-0.351-0.916-0.704-1.832-1.062-2.743c-0.417-1.06-0.845-2.112-1.277-3.162l-0.131-0.331c0.667-3.011,1.415-6,2.046-9.023
		c8.928-42.736,12.188-84.541,11.011-125.937c-0.87-30.604-4.258-60.982-9.474-91.354c3.001-1.805,5.089-5.145,7.445-8.083
		c5.408-6.748,11.393-12.144,18.171-18.061c13.401-11.701,23.659-26.022,36.818-37.895c1.82-1.642,3.698-3.24,5.644-4.775
		c8.689-6.85,15.503-14.645,20.807-23.218c0.321-0.514,0.648-1.028,0.957-1.549c0.628-1.067,1.23-2.149,1.815-3.24
		c0.434-0.809,0.853-1.625,1.262-2.446c0.463-0.933,0.923-1.871,1.354-2.821c0.504-1.108,0.972-2.237,1.435-3.369
		c0.302-0.74,0.621-1.476,0.906-2.227c0.731-1.932,1.418-3.888,2.029-5.881c0.816-2.646,1.713-5.549,2.543-8.57
		c0.831-3.02,1.596-6.159,2.148-9.281C2032.003,838.048,2032.264,831.88,2030.515,826.883z"/>
	<path style="fill:#95A3AA;" d="M1691.923,989.134c3.483-28.741,10.704-53.13,6.772-82.534c-4.005-29.951-12.69-59.878-22.96-88.224
		c-10.393-28.682-21.859-55.537-25.479-86.114c-3.995-33.749,0.015-68.331-9.917-101.289c-7.374-24.475-22.68-45.474-33.795-68.277
		c-9.664-19.825-10.811-35.457-12.222-57.238c-2.075-32.061-19.076-59.118-36.465-85.089c-18.285-27.31-33.861-55.664-55.201-80.993
		c-32.032-38.015-71.181-67.79-114.485-92.458c-16.568-9.437-33.727-18.144-51.294-26.309
		c-16.375-7.608-33.242-14.251-50.409-20.161l0.017-0.039c-1.376-3.118-2.982-6.256-4.697-9.35
		c-3.432-6.193-7.301-12.224-10.661-17.64c-1.681-2.707-3.232-5.262-4.538-7.605l-0.712-1.172
		c-13.077,22.378-34.75,30.351-54.782,45.303c-12.37,9.233-20.025,9.581-34.96,12.195c-20.375,3.569-36.901,9.376-58.119,9.32
		c-41.803-0.115-83.908-0.273-125.698,1.257c-45.908,1.679-90.385-2.2-134.485-15.037c-28.039-8.163-36.862-10.668-57.274-32.972
		c-6.845-7.479-14.09-13.742-21.025-20.053l-0.015-0.013c-3.298,3.004-6.509,6.039-9.588,9.204l-0.01,0.012
		c-1.549,1.593-3.057,3.232-4.524,4.921l-0.173,0.2l-0.947,1.082c-3.445,4.105-6.582,8.575-9.311,13.6
		c-31.362,7.745-62.146,17.245-91.944,28.994c-3.727,1.476-7.435,2.989-11.118,4.535
		C537.006,275.902,447.985,368.345,371.12,464.394c-30.607,38.243-56.95,79.695-79.627,122.933
		c-18.467,35.189-45.749,72.165-58.119,109.22c-31.237,94.061-18.38,196.138-21.764,292.753
		c-2.348,67.074-13.133,134.428-4.046,201.447c4.372,32.249,11.649,60.385,31.732,86.317c18.595,24.005,41.611,44.068,62.183,66.285
		c27.296,29.476,45.561,65.221,68.09,98.083c23.754,34.645,54.212,53.881,90.229,74.687c24.431,14.117,44.024,27.437,62.029,49.568
		c16.974,20.865,35.5,41.031,56.782,57.735c19.752,15.505,40.587,28.809,64.802,35.958c20.68,6.107,41.868,10.902,62.414,17.277
		c12.95,4.02,24.797,10.378,38.158,13.155c41.924,8.709,87.361,9.842,130.061,10.363c85.703,1.045,171.951-10.097,253.198-38.002
		c26.811-9.211,52.996-20.219,78.307-32.997c67.556-34.112,140.787-65.354,197.625-120.996
		c27.023-26.451,49.813-55.559,73.667-84.721c19.873-24.292,41.074-45.632,56.356-73.564c8.969-16.397,10.945-33.873,16.171-51.435
		c6.816-22.899,20.268-36.877,38.765-51.649c41.963-33.513,88.633-52.102,102.765-108.234
		C1703.436,1088.764,1685.891,1038.888,1691.923,989.134z"/>
	<path style="fill:#8D9AA0;" d="M1794.894,946.298c-13.432-22.368-22.304-48.891-33.447-72.265
		c-11.128-23.347-21.591-49.686-22.687-75.781c-0.894-21.276,4.446-37.981-2.273-58.702c-6.68-20.611-14.007-40.999-17.681-62.421
		c-4.488-26.139-4.717-51.491-17.27-75.627c-13.795-26.524-35.062-45.313-47.181-73.386c-11.486-26.602-11.713-54.314-16.358-82.138
		c-6.541-39.186-22.39-70.77-48.634-99.813c-35.274-39.313-77.695-71.123-124.297-97.471
		c-17.817-10.075-36.244-19.349-55.118-27.942c-43.837-19.951-90.424-34.887-137.812-45.712c3.116,4.994,6.553,10.427,9.652,16.02
		c1.715,3.094,3.32,6.231,4.697,9.35l-0.017,0.039c17.167,5.91,34.034,12.553,50.409,20.161
		c17.566,8.165,34.726,16.872,51.294,26.309c43.303,24.668,82.453,54.443,114.485,92.458c21.34,25.33,36.916,53.683,55.201,80.993
		c17.389,25.971,34.39,53.028,36.465,85.089c1.41,21.781,2.558,37.413,12.222,57.238c11.116,22.804,26.422,43.803,33.795,68.277
		c9.932,32.958,5.922,67.539,9.917,101.289c3.62,30.577,15.086,57.432,25.479,86.114c10.27,28.346,18.955,58.273,22.96,88.224
		c3.932,29.403-3.289,53.793-6.772,82.534c-6.032,49.754,11.513,99.629-1.028,149.442c-14.131,56.132-60.801,74.721-102.765,108.234
		c-18.497,14.772-31.949,28.75-38.765,51.649c-5.226,17.562-7.201,35.038-16.171,51.435c-15.281,27.932-36.482,49.272-56.356,73.564
		c-23.854,29.162-46.644,58.271-73.667,84.721c-56.838,55.642-130.068,86.884-197.625,120.996
		c-25.31,12.777-51.496,23.786-78.307,32.997c-81.247,27.905-167.495,39.048-253.198,38.002
		c-42.699-0.521-88.136-1.654-130.061-10.363c-13.362-2.777-25.208-9.135-38.158-13.155c-20.546-6.375-41.735-11.169-62.414-17.277
		c-24.214-7.15-45.05-20.453-64.802-35.958c-21.281-16.704-39.807-36.87-56.782-57.735c-18.005-22.131-37.598-35.452-62.029-49.568
		c-36.017-20.806-66.475-40.042-90.229-74.687c-22.528-32.862-40.794-68.607-68.09-98.083
		c-20.572-22.217-43.588-42.28-62.183-66.285c-20.083-25.932-27.359-54.068-31.732-86.317
		c-9.087-67.018,1.698-134.373,4.046-201.447c3.383-96.614-9.474-198.692,21.764-292.753c12.37-37.055,39.652-74.032,58.119-109.22
		c22.677-43.237,49.021-84.689,79.627-122.933c76.865-96.049,165.885-188.492,280.786-237.204c3.683-1.547,7.391-3.059,11.118-4.535
		c29.798-11.749,60.582-21.25,91.944-28.994c2.729-5.025,5.866-9.496,9.311-13.6c-28.997,6.86-57.603,15.123-85.583,25.198
		c-4.122,1.486-8.227,3.013-12.314,4.577C540.409,258.333,433.895,354.74,347.936,456.465
		c-38.706,45.807-70.575,96.787-98.068,149.742c-22.309,42.957-56.363,88.302-70.599,133.727
		c-36.209,115.814-19.396,241.844-14.685,360.543c1.559,39.259,2.017,78.599,5.584,117.749c2.575,28.27-6.151,56.207,17.035,78.193
		c21.164,20.07,47.696,33.15,70.443,51.21c31.023,24.631,56.921,56.414,73.645,92.473c13.805,29.766,25.878,57.293,49.13,81.237
		c22.985,23.671,48.422,44.263,69.649,69.754c18.723,22.483,22.641,48.621,28.967,76.163c6.071,26.419,26.222,51.613,48.536,66.789
		c8.821,6,19.147,7.747,28.904,11.528c8.351,3.235,12.925,8.177,20.232,12.602c18.353,11.113,43.177,16.733,63.549,23.111
		c43.43,13.598,87.841,23.766,132.336,33.179c35.086,7.423,70.57,12.984,106.258,16.516c34.492,3.413,46.638-3.227,76.86-16.828
		c21.617-9.727,42.516-18.656,61.897-32.853c23.554-17.255,43.228-31.9,73.108-38.177c22.996-4.831,47.8-4.685,71.323-4.795
		c35.357-0.166,76.071-3.785,110.782,2.076c41.515,7.013,81.651,22.324,124.563,16.619c33.639-4.473,66.461-20.01,89.724-44.979
		c9.077-9.742,13.847-22.429,22.687-32.005c9.764-10.57,24.87-15.771,36.556-23.997c52.582-37.011,92.623-100.185,100.899-164.246
		c4.368-33.817,1.286-68.799,14.416-100.969c10.772-26.4,28.107-48.707,39.479-74.784c12.334-28.292,18.743-53.403,39.381-77.528
		c16.533-19.33,35.011-37.145,47.169-59.834c18.423-34.385,11.352-74.38,17.564-111.966
		C1812.091,1025.385,1817.57,984.06,1794.894,946.298z"/>
	<path style="fill:#9DACB4;" d="M1582.33,768.942c-7.084-32.299-21.096-62.716-26.327-95.474
		c-4.767-29.856-2.689-61.269-19.149-88.134c-11.296-18.436-29.218-25.859-44.941-39.333
		c-21.666-18.565-27.284-49.449-48.928-67.357c-26.314-21.774-64.723-14.485-84.022-47.854
		c-11.067-19.135-16.344-39.993-18.132-61.622c-1.011-12.207-2.448-18.86-9.381-28.589c-2.03-2.848-3.786-5.537-4.687-8.882
		l-0.144-0.041c-10.502-0.938-20.075,2.37-28.886,7.293c-22.577,12.621-50.784,10.304-74.931,0.499
		c-24.256-9.849-43.861-26.158-70.031-31.732c-24.251-5.167-53.215-5.869-77.661-1.398c-24.945,4.558-47.316,16.921-71.367,23.847
		c-28.565,8.226-58.046,19.637-87.552,8.275c-22.307-8.59-35.313-19.969-54.022-34.921c-14.58-11.652-28.463-22.651-46.536-27.45
		c-11.242-2.986-21.091-7.34-31.932-11.257c-23.549-8.504-35.313-10.656-51.006-30.244c-20.546-25.644-61.927-4.803-85.342,5.484
		c-3.335,1.466-6.645,2.957-9.922,4.492c-103.93,48.716-175.615,137.103-243.128,227.775
		c-22.706,30.492-43.325,62.609-61.186,96.127c-14.628,27.423-35.135,56.027-45.64,84.714
		c-26.268,72.305-20.682,150.64-28.843,224.964c-10.519,95.829-40.887,185.602-11.55,282.375
		c26.378,86.426,73.062,179.561,135.118,246.653c53.118,57.427,112.406,106.048,179.527,134.166
		c72.015,30.434,152.141,35.688,231.077,33.591c56.743-1.508,113.532-7.445,168.874-20.314
		c47.469-11.035,100.307-43.605,149.683-38.302c16.122,1.732,33.783,5.259,49.444-1.347c25.16-10.619,34.999-39.703,61.606-49.062
		c34.175-12.022,71.888-3.342,103.359-23.542c64.068-41.126,103.415-115.929,129.924-184.894
		c7.546-19.629,12.782-40.187,25.106-57.605c10.329-14.601,24.891-26.066,37.267-38.831c23.52-24.268,39.686-46.426,44.587-80.402
		c4.487-31.091,4.833-62.083,11.617-92.918c6.617-30.061,21.389-58.614,27.272-88.47
		C1609.818,857.239,1591.238,809.551,1582.33,768.942z"/>
	<path style="fill:#839096;" d="M1968.256,908.942c-26.039,1.701-52.775-4.146-75.184-13.057
		c-21.749-8.648-39.22-22.4-49.856-41.372c-6.349-11.321-11.296-23.761-15.897-35.871c-4.604-12.117-7.084-23.966-6.994-37.259
		c0.044-6.458,0.212-12.943-0.543-19.287c-0.814-6.838-3.162-13.313-4.797-19.934c-1.766-7.157-3.318-14.375-5.043-21.544
		c-1.637-6.797-3.03-13.978-6.46-20.097c-3.196-5.708-7.815-10.563-11.557-15.944c-3.632-5.223-6.4-10.858-8.102-16.975
		c-2.848-10.243-2.855-21.505-8.507-30.735c-3.374-5.51-8.655-9.851-13.213-14.522c-4.629-4.745-9.123-9.6-13.43-14.592
		c-8.787-10.19-16.813-20.981-23.333-32.582c-5.966-10.617-11.101-22.261-12.479-34.578c-1.023-9.135,1.018-18.102,5.449-26.989
		c2.281-4.57,4.916-9.03,7.384-13.542c3.296-6.029,5.252-11.837,6.794-18.205c3.214-13.288,10.307-25.965,15.403-38.955
		c4.587-11.698,9.762-25.157,8.821-37.147c-0.86-10.928-7.245-19.739-10.967-29.571l-0.112-0.01
		c-5.934-0.414-11.813-0.716-17.82-1.747c-9.895-1.698-19.88-0.199-29.681-0.723c-1.32-0.07-2.565-0.316-3.793-0.555
		c-5.901-6.809-11.937-13.562-18.263-20.195c-105.181-110.294-261.848-171.873-417.035-197.982c2.748,3.24,5.293,6.799,7.549,10.843
		c1.306,2.343,2.857,4.899,4.538,7.605c0.327,0.526,0.675,1.084,1.009,1.62c47.388,10.826,93.975,25.761,137.812,45.712
		c18.875,8.592,37.301,17.866,55.118,27.942c46.602,26.348,89.023,58.158,124.297,97.471c26.244,29.043,42.093,60.626,48.634,99.813
		c4.645,27.824,4.872,55.537,16.358,82.138c12.119,28.073,33.386,46.862,47.181,73.386c12.553,24.136,12.782,49.488,17.27,75.627
		c3.673,21.422,11.001,41.81,17.681,62.421c6.719,20.721,1.379,37.425,2.273,58.702c1.096,26.095,11.559,52.434,22.687,75.781
		c11.142,23.374,20.015,49.897,33.447,72.265c22.675,37.762,17.196,79.087,10.366,120.414c-6.212,37.586,0.86,77.581-17.564,111.966
		c-12.159,22.689-30.636,40.504-47.169,59.834c-20.638,24.124-27.047,49.235-39.381,77.528
		c-11.371,26.078-28.706,48.385-39.479,74.784c-13.13,32.171-10.048,67.152-14.416,100.969
		c-8.275,64.061-48.317,127.235-100.899,164.246c-11.686,8.226-26.792,13.427-36.556,23.997
		c-8.841,9.577-13.61,22.263-22.687,32.005c-23.264,24.97-56.085,40.506-89.724,44.979c-42.911,5.705-83.047-9.605-124.563-16.619
		c-34.711-5.861-75.425-2.241-110.782-2.076c-23.522,0.11-48.326-0.036-71.323,4.795c-29.88,6.278-49.554,20.923-73.108,38.177
		c-19.381,14.197-40.28,23.126-61.897,32.853c-30.222,13.601-42.368,20.241-76.86,16.828c-35.688-3.532-71.172-9.094-106.258-16.516
		c-44.495-9.413-88.906-19.581-132.336-33.179c-20.373-6.378-45.196-11.998-63.549-23.111c-7.306-4.424-11.881-9.367-20.232-12.602
		c-9.757-3.781-20.083-5.527-28.904-11.528c-22.314-15.176-42.465-40.37-48.536-66.789c-6.326-27.542-10.243-53.681-28.967-76.163
		c-21.228-25.491-46.665-46.083-69.649-69.754c-23.252-23.944-35.325-51.471-49.13-81.237
		c-16.724-36.059-42.621-67.842-73.645-92.473c-22.747-18.061-49.279-31.14-70.443-51.21c-23.186-21.986-14.46-49.922-17.035-78.193
		c-3.567-39.15-4.025-78.49-5.584-117.749c-4.711-118.699-21.525-244.729,14.685-360.543c14.236-45.425,48.29-90.77,70.599-133.727
		c27.493-52.955,59.362-103.935,98.068-149.742c85.958-101.724,192.472-198.132,318.445-246.628
		c4.088-1.564,8.193-3.091,12.314-4.577c27.98-10.075,56.587-18.338,85.583-25.198l0.947-1.082l0.173-0.2
		c1.466-1.688,2.974-3.328,4.524-4.921l0.01-0.012c3.079-3.165,6.29-6.2,9.588-9.204l0.015,0.013l0.07-0.066
		c-33.384,7.359-66.375,16.487-98.747,27.893c-137.05,48.282-261.169,148.463-356.107,256.056
		c-46.957,53.215-84.197,113.873-116.509,176.548c-26.151,50.724-66.977,104.441-83.079,158.232
		c-41.181,137.574-24.85,288.37-7.606,428.335c6.846,55.557,18.078,110.984,34.675,164.653c-3.118,4.694-6.621,9.03-10.504,13.695
		c-9.842,11.827-16.67,25.091-26.285,37.006c-1.333,1.649-2.716,3.271-4.168,4.862c-1.92,2.102-3.645,4.248-5.272,6.414
		c8.592-5.817,18.044-10.419,28.256-13.442c21.888-6.485,45.362-7.189,65.561-4.633c19.608,2.479,36.251,9.807,47.776,22.582
		c6.879,7.625,12.716,16.405,18.214,24.992c5.503,8.592,9.164,17.393,10.833,27.839c0.814,5.074,1.523,10.193,2.996,15.018
		c1.591,5.204,4.436,9.817,6.694,14.687c2.439,5.264,4.707,10.619,7.113,15.9c2.282,5.006,4.409,10.363,8.127,14.485
		c3.464,3.844,8.024,6.738,11.907,10.217c3.774,3.378,6.862,7.25,9.111,11.712c3.766,7.472,5.252,16.302,11.264,22.424
		c3.591,3.654,8.646,6.012,13.128,8.775c4.555,2.806,9.011,5.724,13.323,8.789c8.801,6.253,17.035,13.128,24.098,20.938
		c6.46,7.145,12.35,15.262,15.14,24.651c2.071,6.962,1.513,14.399-1.082,22.246c-1.335,4.037-2.989,8.056-4.49,12.08
		c-2.007,5.381-2.906,10.324-3.379,15.625c-0.984,11.057-5.342,22.404-7.961,33.6c-2.361,10.083-4.986,21.661-2.612,30.882
		c2.166,8.4,8.746,14.046,13.201,21.021l0.098-0.015c5.094-0.848,10.124-1.776,15.359-2.156c8.626-0.626,16.908-3.776,25.301-5.303
		c3.615-0.658,6.853,0.251,10.299-2.448c8.105,6.455,16.312,12.74,24.69,18.718c87.666,62.575,190.611,96.115,293.515,126.775
		c39.396,11.737,79.703,21.04,120.492,27.807c2.429,2.533,4.894,5.267,7.332,8.107c4.073,4.746,8.014,9.703,11.374,14.3l0.024,0.034
		c1.116,1.525,2.178,3.016,3.145,4.433l0.607,0.777v-0.002c-5.917-8.582-8.373-19.944-6.12-34.933
		c6.641-44.158,65.333-73.22,97.347-97.654c62.563-47.744,144.098-61.776,221.091-56.097c65.737,4.848,162.967,26.088,184.838,99.98
		c3.004,10.149,2.84,20.658,0.356,31.009h-0.003l0.003-0.002c1.269-3.189,2.271-6.585,3.254-10.124
		c0.984-3.54,1.949-7.218,3.148-10.97c3.598-11.267,7.549-23.949,12.865-34.987l0.066,0.041c-3.057,6.341-5.649,13.197-8.01,20.025
		c72.146-25.315,144.714-53.108,201.842-101.885c46.328-39.557,86.353-83.313,120.83-130.46c3.552-0.648,6.904-1.24,9.876-1.634
		c0.463-0.061,0.896-0.161,1.352-0.229c-16.007-20.385-15.459-43.472-22.005-67.595c-4.041-14.899-1.552-22.146,1.503-36.997
		c4.17-20.261,4.838-37.766,12.69-57.479c15.467-38.835,31.086-77.936,45.021-117.366c15.303-43.31,35.257-83.252,63.401-119.549
		c17.895-23.079,23.466-30.365,51.71-41.155c9.474-3.618,17.964-8.058,26.388-12.188l0.007-0.004l-0.463-1.192
		c-0.351-0.916-0.704-1.832-1.062-2.743c-0.417-1.06-0.845-2.112-1.277-3.162c-0.324-0.794-0.648-1.586-0.981-2.373
		c0.287,0.677,0.567,1.359,0.85,2.042c0.667-3.011,1.415-6,2.046-9.023c8.928-42.736,12.188-84.541,11.011-125.937
		c-0.87-30.604-4.258-60.982-9.474-91.354c3.001-1.805,5.089-5.145,7.445-8.083c5.408-6.748,11.393-12.144,18.171-18.061
		c13.401-11.701,23.659-26.022,36.818-37.895c1.82-1.642,3.698-3.24,5.644-4.775c2.575-2.032,4.938-4.17,7.194-6.363
		C1991.988,905.207,1980.402,908.15,1968.256,908.942z"/>
	<path style="fill:#95A3AA;" d="M1243.256,167.663c-12.219-19.021-31.976-26.073-50.266-39.082
		c-11.501-8.18-18.619-8.49-32.504-10.804c-18.948-3.162-34.312-8.31-54.041-8.258c-38.868,0.1-78.02,0.241-116.877-1.113
		c-42.685-1.489-84.039,1.949-125.045,13.323c-26.071,7.23-34.275,9.452-53.254,29.21c-5.323,5.542-10.897,10.319-16.353,15.008
		c2.65,2.314,5.286,4.695,7.861,7.267c19.771,19.759,28.319,21.981,55.481,29.211c37.418,9.963,75.115,13.834,113.778,13.642
		c5.589-0.024,11.199-0.129,16.828-0.319c30.312-1.013,60.791-1.189,91.193-1.172c10.097,0.005,20.185,0.034,30.254,0.058h0.316
		c20.553,0.051,36.561-5.096,56.3-8.255c14.468-2.317,21.88-2.626,33.864-10.807c7.513-5.128,15.265-9.33,22.682-13.698
		l-0.134-0.124C1230.462,177.549,1237.275,173.181,1243.256,167.663z"/>
	<path style="fill:#95A3AA;" d="M2007.352,836.079c-1.286-3.564-2.748-7.084-4.297-10.809c-1.61-3.868-3.211-7.9-4.716-12.068
		c-0.502-1.388-1.036-2.734-1.496-4.17c-0.443-1.374-0.928-2.758-1.466-4.173c-0.536-1.415-1.125-2.86-1.774-4.358
		c-1.703-3.932-3.632-7.803-5.676-11.902l-2.205-4.448c-0.68-1.389-1.308-2.763-1.897-4.125c-0.268-0.621-0.492-1.218-0.745-1.832
		c-0.626-1.513-1.255-3.028-1.835-4.502c-0.346-0.877-0.704-1.722-1.05-2.585c-0.346-0.863-0.682-1.739-1.05-2.587
		c-1.44-3.323-2.797-5.754-4.412-7.837c-0.536-0.692-1.104-1.347-1.71-1.983c-7.033-7.359-10.882-15.016-14.606-22.424
		c-1.384-2.753-2.692-5.352-4.17-7.966c-4.064-7.182-9.331-13.355-15.294-19.096c-5.963-5.741-12.626-11.055-19.476-16.521
		c-2.131-1.698-4.27-3.406-6.407-5.138c-4.115-3.335-8.036-6.645-11.778-9.939c-26.192-23.059-43.437-45.298-53.786-69.201
		c-2.368-5.466-4.248-11.082-5.873-16.731c-0.541-1.88-1.169-3.754-1.622-5.642c-0.696-2.897-1.488-5.715-2.358-8.492
		c-2.616-8.326-5.953-16.273-9.639-24.786l-1.22-2.811l-1.247-2.877l-1.995-4.636c-2.422-5.683-3.822-11.43-4.702-17.04
		c-0.439-2.804-0.748-5.574-0.989-8.283c-0.241-2.711-0.412-5.359-0.58-7.924c-0.265-4.083-0.523-8.054-1.013-11.869
		c-0.246-1.91-0.548-3.781-0.938-5.608c-0.39-1.827-0.865-3.613-1.459-5.347c-0.768-2.244-1.462-4.514-2.098-6.801
		c-1.912-6.865-3.315-13.885-4.684-20.731c-2.207-11.028-4.29-21.444-8.212-30.505c-1.094-2.528-2.259-4.784-3.559-6.896
		c-1.454-2.365-3.252-4.782-5.245-7.116c-0.996-1.166-2.039-2.311-3.113-3.418c-5.362-5.535-11.452-10.102-15.886-11.54
		c-1.108-0.361-2.187-0.755-3.237-1.172c0.472,1.922,0.863,3.961,1.118,6.103l0.01,0.146c0.212,1.829,0.326,3.666,0.348,5.505
		l-0.039,1.32c-0.015,1.464-0.042,2.931-0.154,4.387l-0.107,1.001c-0.144,1.576-0.309,3.148-0.543,4.702l-0.078,0.446
		c-0.271,1.734-0.58,3.454-0.936,5.145c-1.425,6.804-3.422,13.194-5.13,18.607c-1.427,4.536-3.052,8.952-4.623,13.223
		c-2.882,7.824-5.601,15.216-6.884,22.572c-1.41,8.085-3.323,14.47-6.205,20.706c-0.655,1.42-1.328,2.835-2.002,4.253
		c-1.352,2.845-2.631,5.535-3.744,8.207c-2.797,6.726-3.696,13.094-2.748,19.464c0.872,5.837,2.731,11.995,5.688,18.824
		c1.567,3.618,3.43,7.401,5.698,11.564c5.501,10.095,12.414,20.305,21.138,31.213c3.761,4.702,7.759,9.415,12.222,14.407
		c1.021,1.142,2.08,2.266,3.143,3.394c3.574,3.79,7.622,8.087,10.76,13.423c0.996,1.695,1.917,3.515,2.735,5.406
		c2.704,6.246,3.998,12.431,5.25,18.411c0.699,3.345,1.362,6.507,2.229,9.425c0.541,1.827,1.208,3.661,1.981,5.445
		c1.213,2.796,2.733,5.591,4.519,8.3c1.252,1.897,2.606,3.729,3.958,5.566c2.607,3.537,5.301,7.196,7.635,11.493
		c0.753,1.388,1.44,2.811,2.068,4.266c2.334,5.386,3.781,10.989,5.06,15.932l0.655,2.526c0.853,3.225,1.671,6.458,2.493,9.691
		c0.981,3.868,1.961,7.737,2.998,11.591c0.529,1.959,1.116,3.905,1.703,5.854c1.447,4.799,2.943,9.761,3.788,15.215
		c0.965,6.21,1.203,12.246,1.435,18.081l0.09,2.227c0.458,10.986,2.733,21.437,7.164,32.894c2.227,5.759,4.653,11.934,7.315,18.08
		c2.695,6.224,5.272,11.581,7.876,16.373c8.79,16.166,22.517,28.806,40.802,37.571c12.56,6.022,25.408,10.19,37.768,12.607
		l-0.088,0.102c1.717,0.339,3.416,0.621,5.111,0.889c0.634,0.1,1.267,0.2,1.895,0.287c1.425,0.205,2.84,0.378,4.246,0.529
		c1.079,0.115,2.146,0.197,3.213,0.282c1.045,0.081,2.095,0.171,3.128,0.22c2.153,0.105,4.283,0.153,6.365,0.117h0.054
		c3.583-0.068,7.13-0.456,10.633-1.094c4.073-0.741,8.088-1.834,12.005-3.335c6.689-7.812,11.254-17.142,13.917-28.433
		C2006.743,854.952,2009.676,842.521,2007.352,836.079z"/>
	<path style="fill:#95A3AA;" d="M1927.986,1244.003c-3.198-6.987-5.591-13.924-7.949-20.726c-3.125,1.617-6.309,3.193-9.647,4.643
		c-25.642,11.128-30.848,18.26-47.554,40.865c-23.016,31.143-40.47,64.782-54.499,100.813c-2.03,5.206-3.99,10.458-5.883,15.761
		c-10.195,28.565-21.233,56.979-32.422,85.247c-3.712,9.386-7.445,18.755-11.167,28.11l-0.117,0.297
		c-7.6,19.099-8.696,35.876-13.008,55.396c-3.162,14.304-5.601,21.315-2.395,35.464c2.01,8.872,3.067,17.625,4.407,26.129
		l0.163-0.08c1.291,8.17,2.848,16.112,5.783,23.702c22.18-4.377,36-20.158,54.818-32.389c11.834-7.691,14.736-14.197,21.993-26.261
		c9.9-16.458,20.334-28.858,27.537-47.225c14.188-36.188,28.443-72.65,43.981-108.292c17.07-39.15,29.069-78.875,33.559-121.191
		C1938.441,1277.36,1939.389,1268.915,1927.986,1244.003z"/>
	<path style="fill:#A7B7BE;" d="M1408.673,569.088c-23.907-17.408-48.032-28.382-65.223-53.683
		c-12.307-18.11-18.674-40.743-34.616-56.39c-13.138-12.891-31.479-17.966-42.926-32.692
		c-10.156-13.062-16.652-27.591-31.183-37.035c-8.658-5.628-18.948-7.128-27.693-12.821c-7.927-5.159-13.094-12.272-19.683-18.845
		c-10.958-10.928-24.536-24.999-39.489-30.39c-37.91-13.667-95.518,3.018-129.006,22.08c-16.295,9.276-34.962,21.498-54.365,22.594
		c-16.185,0.913-44.356-11.172-58.755-18.726c-14.431-7.571-27.062-18.266-42.063-25.182c-16.134-7.437-31.776-13.381-46.46-23.625
		c-16.755-11.683-27.946-18.499-48.27-21.361c-16.957-2.387-26.156-4.002-38.358-15.895c-52.797-51.462-140.251,9.824-181.04,46.482
		c-53.043,47.671-92.648,107.805-132.056,166.648c-15.081,22.521-29.7,45.522-42.743,69.32
		c-10.787,19.654-24.519,39.89-33.159,60.207c-21.296,50.55-25.372,104.886-35.922,157.174
		c-21.191,105.033-62.317,201.866-31.089,309.225c27.479,94.102,78.638,198.762,148.134,269.602
		c50.241,51.215,107.323,88.519,169.946,106.826c66.797,19.72,139.106,16.648,210.263,2.529
		c50.999-10.12,101.354-24.385,149.023-45.323c22.47-9.871,37.883-19.747,55.299-36.068c15.386-14.416,29.759-36.687,47.907-47.593
		c27.905-16.77,64.168-7.504,94.329-13.657c-2.366-0.894-4.804-1.883-7.333-2.992c-20.998-27.04-21.739-45.327-31.293-69.14
		c-5.902-14.704-3.277-18.913-0.419-28.889c3.897-13.613,3.649-27.31,12.122-38.049c16.692-21.155,33.557-42.419,48.321-65.065
		c16.219-24.874,38.378-43.956,70.862-54.684c20.656-6.821,27.084-9.026,61.26,0.919c11.461,3.337,21.659,5.359,31.793,7.586
		l0.014,0.002c-0.519-1.035-1.05-2.071-1.573-3.104l-0.141-0.277c-0.672-1.323-1.362-2.651-2.056-3.976l-0.477-0.899
		c-0.692-1.313-1.399-2.626-2.124-3.946l-0.039-0.068c-2.29-4.153-4.801-8.365-7.632-12.68c-0.314-0.483-0.629-0.962-0.952-1.449
		c-0.792-1.179-1.615-2.37-2.463-3.571c-0.378-0.536-0.772-1.077-1.164-1.618c-0.887-1.225-1.783-2.453-2.738-3.702l-0.86-1.097
		c-0.448-0.577-0.904-1.157-1.367-1.739c3.454-4.039,7.359-8.022,11.973-12.056c21.986-19.23,40.434-30.801,68.395-43.323
		c23.934-10.716,37.834-19.052,47.157-44.556c11.418-31.235,9.357-68.007,9.333-100.704c-0.022-29.766,3.388-58.18,17.734-84.95
		c8.772-16.372,20.066-33.525,22.543-52.438C1495.092,634.543,1445.222,595.7,1408.673,569.088z"/>
	<path style="fill:#AFBFC8;" d="M1318.961,505.534c-17.983-21.123-30.146-49.369-54.243-63.593
		c-24.081-14.214-40.819-37.947-67.518-48.012c-15.581-5.873-32.244-8.952-49.067-10.012c-15.586-0.979-31.308-0.227-46.441,1.647
		c-47.676,5.9-91.469,21.703-140.248,12.899c-32.57-5.881-61.971-13.776-89.04-33.668c-18.555-13.637-35.14-29.445-57.157-37.62
		c-17.671-6.563-35.391-6.84-52.614-15.308c-18.578-9.133-34.906-23.067-54.27-30.536c-57.398-22.134-113.445,10.463-157.289,44.56
		c-49.907,38.811-80.621,108.049-110.404,162.285c-30.519,55.581-66.202,107.919-87.983,167.598
		c-40.572,111.174-83.746,218.129-50.628,336.075c7.152,25.474,16.283,50.356,30.012,73.118
		c15.038,24.926,40.161,41.213,62.195,59.306c19.116,15.693,42.994,27.51,66.458,34.962c24.385,7.744,50.38,6.984,73.564,18.777
		c20.309,10.331,27.447,27.839,34.445,48.692c6.351,18.921,2.797,43.686,17.618,58.149c28.11,27.423,86.085,29.83,121.871,44.353
		c30.938,12.555,52.097,10.984,83.761,2.429c37.907-10.244,79.001-16.339,113.031-37.089c53.379-32.55,93.018-98.74,113.968-156.429
		c19.067-52.502,51.232-95.769,78.475-143.883c20.022-35.361,61.308-40.346,89.476-65.824c30.541-27.62,75.006-33.082,105.9-61.605
		c25.547-23.589,40.334-51.474,49.783-84.519c11.498-40.214,24.28-79.912,36.222-119.997
		C1395.545,606.201,1353.575,546.189,1318.961,505.534z"/>
	<path style="fill:#525D62;" d="M1192.99,128.582c-11.501-8.18-18.619-8.49-32.504-10.804c-18.948-3.162-34.312-8.31-54.041-8.258
		c-38.868,0.1-78.02,0.241-116.877-1.113c-42.685-1.489-84.039,1.949-125.045,13.323c-26.071,7.23-34.275,9.452-53.254,29.21
		c-5.323,5.542-10.897,10.319-16.353,15.008c2.65,2.314,5.286,4.695,7.861,7.267c5.103,5.103,9.459,9.021,13.581,12.17l0.129-0.234
		c-0.599-0.46-1.179-0.858-1.788-1.352c2.261-2.171,4.517-4.38,6.716-6.785c18.083-19.759,25.9-21.981,50.74-29.213
		c39.07-11.373,78.475-14.811,119.143-13.323c37.026,1.357,74.326,1.216,111.362,1.116c18.799-0.051,33.437,5.096,51.491,8.255
		c13.23,2.317,20.012,2.626,30.972,10.807c13.184,9.841,27.147,16.307,38.216,27.094c7.123-4.202,13.937-8.57,19.917-14.088
		C1231.036,148.643,1211.28,141.59,1192.99,128.582z"/>
	<path style="fill:#BFD1DA;" d="M443.322,897.507c28.573-16.555,47.043-39.064,59.616-65.941
		c11.444-24.468,24.918-48.029,38.243-71.452c6.763-11.888,5.347-24.899,7.707-38.638c1.73-10.071,3.749-14.594-2.884-27.467
		c-10.743-20.843-12.999-38.134-34.414-59.83c-29.666-6.996-45.61,0.075-68.998,1.747c-14.444,1.033-17.257,5.113-24.955,11.83
		c-10.504,9.167-22.351,14.728-28.982,26.692c-13.067,23.566-26.176,47.333-41.113,69.839
		c-16.41,24.724-26.019,52.207-25.289,85.223c0.465,20.989,0.54,27.556,19.552,53.325c6.38,8.646,11.242,16.738,16.263,24.687
		c9.4,0.151,18.84,0.092,29.544,1.04C419.51,911.388,425.156,908.035,443.322,897.507z M375.191,899.948
		c-3.747-0.202-7.296-0.246-10.772-0.238c-3.632-6.076-7.323-12.268-11.968-18.812c-16.563-23.335-16.507-29.369-16.531-48.657
		c-0.036-30.336,9.094-55.783,24.268-78.818c13.812-20.969,26.007-43.062,38.163-64.972c6.168-11.12,16.894-16.455,26.482-25.079
		c7.028-6.319,9.625-10.122,22.594-11.343c20.619-1.939,34.906-8.521,60.47-3.196c4.412,6.899,7.245,13.527,9.793,20.224
		l0.183,0.005c2.646,6.97,4.994,14.017,8.475,21.527c5.554,11.978,3.567,16.344,1.644,25.962
		c-2.623,13.118-1.803,25.413-8.348,36.933l-0.1,0.175l-0.007,0.015c-3.206,5.642-6.421,11.293-9.615,16.962
		c-9.615,17.071-19.033,34.312-27.442,51.995c-1.562,3.284-3.211,6.505-4.948,9.659c-11.983,21.854-28.302,40.56-51.486,55.203
		C409.217,898.123,403.987,901.504,375.191,899.948z"/>
	<path style="fill:#95A3AA;" d="M573.585,714.871c-0.884-6.46-2.658-12.918-4.972-19.33c-2.434-6.738-5.481-13.376-8.141-20.08
		c-2.804-7.072-5.461-14.288-9.476-21.091c-2.994-5.074-7.106-9.664-11.703-13.978c-9.593-2.205-18.777-4.027-26.139-5.859
		l-0.431-0.097l-1.133-0.256c21.415,21.695,23.672,38.987,34.414,59.83c6.633,12.872,4.614,17.396,2.884,27.467
		c-2.36,13.739-0.945,26.75-7.707,38.638c-13.325,23.422-26.799,46.984-38.243,71.452c-12.573,26.877-31.043,49.386-59.616,65.941
		c-18.166,10.529-23.812,13.881-55.71,11.055c-10.704-0.948-20.144-0.89-29.544-1.04l0.051,0.08c0.87,1.376,1.749,2.75,2.636,4.119
		l0.724,1.106c0.728,1.111,1.471,2.222,2.224,3.332l0.872,1.279c0.799,1.159,1.624,2.321,2.468,3.483l0.701,0.977
		c1.087,1.476,2.212,2.958,3.393,4.446l0.563,0.689c0.986,1.228,2.009,2.461,3.074,3.698c0.414,0.482,0.85,0.97,1.279,1.452
		c0.894,1.014,1.818,2.029,2.775,3.05c0.502,0.536,1.011,1.074,1.532,1.612c1.004,1.038,2.059,2.085,3.135,3.138
		c0.504,0.49,0.992,0.977,1.511,1.471c1.596,1.511,3.252,3.033,5.023,4.572l0.073,0.068c0.597,0.19,1.169,0.351,1.747,0.519
		l0.543,0.163c5.362-0.041,10.626-0.545,15.377-2.168c5.971-2.039,10.789-5.508,15.447-9.13
		c11.932-9.282,27.691-13.532,41.469-20.49c6.353-3.208,12.231-7.098,18.105-10.877c6.3-4.054,12.436-8.31,18.102-13.013
		c5.284-4.385,10.238-9.157,14.197-14.604c4.285-5.893,7.476-12.531,11.301-18.714c7.985-12.899,16.597-25.423,24.051-38.636
		c3.71-6.575,6.909-13.411,10.412-20.095c3.566-6.809,7.245-13.613,9.751-20.943c2.349-6.867,3.674-14.178,3.927-21.678
		c0.236-6.967-0.29-14.063-0.371-21.084C574.082,728.511,574.538,721.831,573.585,714.871z M565.312,757.283
		c-3.284,10.629-7.739,21.491-14.056,30.59c-6.923,9.976-18.558,16.209-23.461,27.625c-4.468,10.402,1.917,23.162-2.166,33.625
		c-2.271,5.827-6.731,10.641-10.629,15.474c-4.187,5.191-8.694,10.166-13.391,14.97c-9.159,9.374-19.191,18.022-29.839,26.046
		c-5.791,4.363-11.764,8.046-18.935,10.723c-6.816,2.543-14.054,4.438-21.284,6.234c-11.311,2.811-24.027,0.417-36.346-0.904
		c-9.971-3.525-20.003-7.7-30.026-11.9c6.813,0.175,13.817,0.402,21.395,1.157c34.158,3.396,40.977-0.439,59.201-10.687l0.207-0.119
		c23.752-13.357,41.749-31.338,55.021-54.967c2.061-3.668,4.041-7.539,5.888-11.508c8.672-18.648,18.424-36.443,26.821-51.393
		c3.411-6.068,6.85-12.117,10.287-18.151l1.031-1.81l0.102-0.183c4.769-8.489,5.454-17.371,6.178-26.777
		c0.314-4.054,0.638-8.248,1.318-12.441c0.188-1.152,0.378-2.232,0.56-3.259c1.469-8.266,2.441-13.73-4.295-26.383
		c-0.93-1.747-1.735-3.449-2.56-5.162c1.559,1.308,3.082,2.66,4.504,4.112c8.716,8.896,12.724,19.669,15.128,30.287
		C568.696,734.54,568.693,746.35,565.312,757.283z"/>
	<path style="fill:#525D62;" d="M477.532,832.289c-11.973,21.773-28.263,40.414-51.379,55.016
		c-13.174,8.322-19.289,12.183-35.115,12.729c-1.764-2.66-3.576-5.345-5.625-8.122c-16.845-22.831-16.911-28.648-17.322-47.245
		c-0.651-29.25,7.863-53.598,22.402-75.5c13.235-19.939,24.848-40.996,36.424-61.873c5.876-10.597,16.37-15.527,25.676-23.647
		c6.82-5.951,9.313-9.564,22.109-10.479c15.396-1.102,27.184-4.801,42.989-4.11c-2.548-6.697-5.381-13.325-9.793-20.224
		c-25.564-5.325-39.851,1.257-60.47,3.196c-12.97,1.221-15.566,5.023-22.594,11.343c-9.589,8.624-20.314,13.958-26.482,25.079
		c-12.156,21.91-24.351,44.003-38.163,64.972c-15.174,23.035-24.305,48.482-24.268,78.818c0.025,19.289-0.031,25.323,16.531,48.657
		c4.645,6.544,8.336,12.736,11.968,18.812c3.476-0.008,7.026,0.036,10.772,0.238c28.797,1.557,34.027-1.824,50.855-12.456
		C449.229,872.849,465.549,854.143,477.532,832.289z"/>
	<path style="fill:#95A3AA;" d="M474.701,673.166c-12.797,0.916-15.289,4.529-22.109,10.479c-9.306,8.12-19.8,13.05-25.676,23.647
		c-11.576,20.877-23.189,41.934-36.424,61.873c-14.538,21.903-23.052,46.251-22.402,75.5c0.412,18.597,0.477,24.414,17.322,47.245
		c2.049,2.777,3.861,5.462,5.625,8.122c15.827-0.546,21.941-4.407,35.115-12.729c23.116-14.601,39.406-33.242,51.379-55.016
		c1.737-3.155,3.386-6.375,4.948-9.659c8.409-17.683,17.827-34.923,27.442-51.995c3.196-5.674,6.414-11.33,9.622-16.977l0.1-0.175
		c6.546-11.52,5.725-23.815,8.348-36.933c1.922-9.618,3.91-13.983-1.644-25.962c-3.481-7.51-5.829-14.557-8.475-21.527l-0.183-0.005
		C501.885,668.365,490.097,672.065,474.701,673.166z"/>
	<path style="fill:#AFBFC8;" d="M550.837,692.194c-1.422-1.452-2.945-2.804-4.504-4.112c0.826,1.713,1.63,3.415,2.56,5.162
		c6.736,12.653,5.764,18.117,4.295,26.383c-0.183,1.028-0.373,2.107-0.56,3.259c-0.68,4.192-1.004,8.387-1.318,12.441
		c-0.724,9.406-1.408,18.288-6.178,26.777l-0.102,0.183l-1.031,1.81c-3.437,6.034-6.877,12.083-10.287,18.151
		c-8.397,14.95-18.149,32.745-26.821,51.393c-1.846,3.968-3.827,7.839-5.888,11.508c-13.272,23.63-31.269,41.611-55.021,54.967
		l-0.207,0.119c-18.224,10.248-25.042,14.083-59.201,10.687c-7.578-0.755-14.582-0.982-21.395-1.157
		c10.024,4.2,20.056,8.375,30.026,11.9c12.319,1.321,25.035,3.715,36.346,0.904c7.23-1.796,14.468-3.691,21.284-6.234
		c7.172-2.677,13.145-6.361,18.935-10.723c10.648-8.024,20.68-16.672,29.839-26.046c4.697-4.804,9.204-9.779,13.391-14.97
		c3.898-4.833,8.358-9.647,10.629-15.474c4.083-10.463-2.302-23.223,2.166-33.625c4.904-11.415,16.538-17.649,23.461-27.625
		c6.317-9.099,10.772-19.961,14.056-30.59c3.381-10.933,3.384-22.743,0.653-34.801C563.561,711.863,559.553,701.09,550.837,692.194z
		"/>
	<path style="fill:#525D62;" d="M1368.357,359.113c9.467,6.446,15.233,14.638,27.074,19.423c5.968,2.414,12.543,3.832,18.307,6.655
		c2.789,1.364,5.162,3.425,8.146,4.18c-9.737-11.766-26.044-24.741-25.033-38.032c4.784,2.67,6.329,7.452,10.407,10.699
		c4.614,3.671,8.723,4.592,14.667,6.19c15.83,4.256,33.63,9.622,47.683,16.806c-3.34-4.579-7.837-8.641-11.854-12.965
		c-6.081-6.551-6.899-13.308-11.12-20.119c-6.882-11.101-15.891-22.87-32.466-27.481c-31.001-8.624-60.115,6.743-89.705,6.587
		c0.699,0.153,1.427,0.375,2.156,0.599l0.144,0.041C1341.339,336.262,1361.584,354.504,1368.357,359.113z"/>
	<path style="fill:#525D62;" d="M756.406,361.856c-10.441,0.556-15.588-3.717-24.283-5.008c-14.165-2.1-30.95-2.806-50.971,8.499
		c-37.455,21.147-57.679,58.363-88.283,84.521c17.14-10.658,52.675-15.479,63.121-18.219c13.866-3.637,25.031-2.699,40.285-9.671
		c7.691-3.515,15.374-8.302,23.113-11.335c3.744-1.466,7.503-2.046,11.062-4.141c-17.532-0.056-42.611,4.825-50.036-5.902
		c6.636-2.276,11.274-0.107,17.544-1.328c7.096-1.379,11.92-4.348,19.065-8.443c19.03-10.909,40.799-22.741,59.864-29.905
		C770.525,360.499,763.303,361.488,756.406,361.856z"/>
	<path style="fill:#525D62;" d="M156.572,1015.231c-6.426,13.652-13.062,36.273-21.291,35.384c1.252-6.597,4.059-8.867,5.72-14.523
		c1.878-6.4,2.109-12.015,2.609-20.146c1.333-21.654,3.184-46.024,6.453-65.371c-2.536,4.702-4.663,10.957-6.989,16.57
		c-3.523,8.497-7.598,9.854-11.432,15.837c-6.248,9.749-12.736,22.414-14.224,45.091c-2.784,42.419,8.982,81.401,11.274,121.593
		c0.77-20.022,11.252-50.767,13.654-60.631c3.186-13.091,7.742-21.223,9.72-37.479c0.997-8.195,1.338-17.177,2.602-25.108
		C155.276,1022.61,156.35,1019.314,156.572,1015.231z"/>
	<path style="fill:#525D62;" d="M2003.055,825.27c-1.61-3.868-3.211-7.9-4.716-12.068c-0.502-1.388-1.036-2.734-1.496-4.17
		c-0.443-1.374-0.928-2.758-1.466-4.173c-0.536-1.415-1.125-2.86-1.774-4.358c-1.703-3.932-3.632-7.803-5.676-11.902l-2.205-4.448
		c-0.68-1.389-1.308-2.763-1.897-4.125c-0.268-0.621-0.492-1.218-0.745-1.832c-0.626-1.513-1.255-3.028-1.835-4.502
		c-0.346-0.877-0.704-1.722-1.05-2.585c-0.346-0.863-0.682-1.739-1.05-2.587c-1.44-3.323-2.797-5.754-4.412-7.837
		c-0.536-0.692-1.104-1.347-1.71-1.983c-7.033-7.359-10.882-15.016-14.606-22.424c-1.384-2.753-2.692-5.352-4.17-7.966
		c-4.064-7.182-9.331-13.355-15.294-19.096c-5.963-5.741-12.626-11.055-19.476-16.521c-2.131-1.698-4.27-3.406-6.407-5.138
		c-4.115-3.335-8.036-6.645-11.778-9.939c-26.192-23.059-43.437-45.298-53.786-69.201c-2.368-5.466-4.248-11.082-5.873-16.731
		c-0.541-1.88-1.169-3.754-1.622-5.642c-0.696-2.897-1.488-5.715-2.358-8.492c-2.616-8.326-5.953-16.273-9.639-24.786l-1.22-2.811
		l-1.247-2.877l-1.995-4.636c-2.422-5.683-3.822-11.43-4.702-17.04c-0.439-2.804-0.748-5.574-0.989-8.283
		c-0.241-2.711-0.412-5.359-0.58-7.924c-0.265-4.083-0.523-8.054-1.013-11.869c-0.246-1.91-0.548-3.781-0.938-5.608
		c-0.39-1.827-0.865-3.613-1.459-5.347c-0.768-2.244-1.462-4.514-2.098-6.801c-1.912-6.865-3.315-13.885-4.684-20.731
		c-2.207-11.028-4.29-21.444-8.212-30.505c-1.094-2.528-2.259-4.784-3.559-6.896c-1.454-2.365-3.252-4.782-5.245-7.116
		c-0.996-1.166-2.039-2.311-3.113-3.418c-5.362-5.535-11.452-10.102-15.886-11.54c-1.108-0.361-2.187-0.755-3.237-1.172
		c0.472,1.922,0.863,3.961,1.118,6.103l0.01,0.146c0.212,1.829,0.326,3.666,0.348,5.505l-0.039,1.32
		c-0.015,1.464-0.042,2.931-0.154,4.387l-0.107,1.001c-0.144,1.576-0.309,3.148-0.543,4.702l-0.078,0.446
		c-0.271,1.734-0.58,3.454-0.936,5.145v0.008c5.886,4.251,12.346,11.218,16.017,17.761c1.138,2.025,2.129,4.183,3.035,6.6
		c3.245,8.66,4.587,18.582,6.005,29.089c1.174,8.694,2.39,17.686,4.801,26.241c1.866,6.631,1.837,13.963,1.803,21.727
		c-0.042,9.752-0.09,20.804,3.907,31.664l1.647,4.433l1.033,2.75l1.011,2.685c4.066,10.853,7.591,20.734,9.545,31.776
		c1.274,7.204,3.244,14.387,5.856,21.355c9.783,26.11,28.587,50.282,59.171,76.078c1.986,1.676,3.976,3.328,5.959,4.97
		c12.748,10.573,24.789,20.56,31.812,34.312c1.279,2.504,2.39,4.993,3.564,7.627c3.162,7.086,6.431,14.412,12.855,21.501
		c2.219,2.448,3.773,5.174,5.359,9.413c0.607,1.618,1.154,3.264,1.715,4.94c0.665,1.983,1.34,4,2.11,6.051
		c0.49,1.301,1.011,2.616,1.588,3.941l1.868,4.256c1.732,3.924,3.369,7.63,4.778,11.386c1.072,2.86,1.924,5.527,2.606,8.149
		c1.43,5.486,3.25,10.582,5.011,15.508c1.272,3.562,2.473,6.923,3.496,10.326c1.849,6.151-1.888,17.917-4.404,25.837
		c-3.352,10.555-8.417,19.257-15.403,26.529c1.717,0.339,3.416,0.621,5.111,0.889c0.634,0.1,1.267,0.2,1.895,0.287
		c1.425,0.205,2.84,0.378,4.246,0.529c1.079,0.115,2.146,0.197,3.213,0.282c1.045,0.081,2.095,0.171,3.128,0.22
		c2.153,0.105,4.283,0.153,6.365,0.117h0.054c3.583-0.068,7.13-0.456,10.633-1.094c4.073-0.741,8.088-1.834,12.005-3.335
		c6.689-7.812,11.254-17.142,13.917-28.433c1.976-8.368,4.909-20.799,2.585-27.24
		C2006.066,832.516,2004.604,828.995,2003.055,825.27z"/>
	<path style="fill:#525D62;" d="M1927.986,1244.003c-3.198-6.987-5.591-13.924-7.949-20.726c-3.125,1.617-6.309,3.193-9.647,4.643
		c-6.443,2.796-11.595,5.34-15.966,7.942l0.156,0.222c0.541-0.319,1.018-0.646,1.586-0.967c1.186,2.901,2.414,5.812,3.842,8.74
		c11.732,24.078,10.925,32.166,8.524,57.927c-3.778,40.514-15.06,78.426-31.389,115.703c-14.867,33.936-28.441,68.68-41.956,103.159
		c-6.86,17.503-17.028,29.228-26.599,44.855c-7.016,11.454-9.795,17.649-21.43,24.836c-13.998,8.646-25.145,19.254-39.243,25.586
		c1.291,8.17,2.848,16.112,5.783,23.702c22.18-4.377,36-20.158,54.818-32.389c11.834-7.691,14.736-14.197,21.993-26.261
		c9.9-16.458,20.334-28.858,27.537-47.225c14.188-36.188,28.443-72.65,43.981-108.292c17.07-39.15,29.069-78.875,33.559-121.191
		C1938.441,1277.36,1939.389,1268.915,1927.986,1244.003z"/>
	<path style="fill:#9DACB4;" d="M1893.664,1206.761c-10.154-0.198-20.728-0.97-29.871,3.522c-10.38,5.101-20.4,10.487-30.005,16.826
		c-10.012,6.609-20.653,11.535-30.08,19.082c-9.164,7.332-17.666,15.603-26.363,23.464c-3.391,3.067-6.729,6.192-9.988,9.391
		l-0.921,1.07c-7.033,8.499-13.525,17.345-19.727,26.37c-3.23,7.123-5.754,14.638-9.435,21.53c-1.866,3.498-3.837,6.93-5.798,10.363
		l-0.472,1.133c-2.351,5.948-4.66,12.141-6.867,18.409c-7.542,21.418-15.493,42.429-22.986,61.717
		c-1.001,7.281-2.461,14.478-4.984,21.43c-4.249,11.713-11.788,21.832-16.073,33.542c-7.367,20.141-12.271,43.635-8.782,65.228
		c3.118,19.311,13.459,36.29,26.835,50.704c8.28,8.923,18.307,17.671,29.486,23.798c-1.191-5.844-2.448-11.813-4.151-17.759
		c-4.166-14.546-2.48-22.616,0.073-34.831c0.317-1.518,0.651-3.113,0.991-4.809c1.235-6.163,2.151-12.163,3.038-17.969
		c2.054-13.456,3.993-26.168,9.545-40.217l0.119-0.302l1.196-3.004c3.988-10.007,7.983-20.036,11.949-30.078
		c9.776-24.741,21.194-54.078,31.766-84.102c2.251-6.393,4.609-12.709,7.006-18.78c15.45-39.104,34.302-72.504,57.637-102.115
		l0.205-0.258c17.905-22.719,24.604-31.22,54.792-42.253c6.699-2.448,12.957-5.367,19.055-8.268
		C1911.815,1208.271,1902.765,1206.939,1893.664,1206.761z"/>
	<path style="fill:#BFD1DA;" d="M1241.733,1053.672c-32.485,10.729-54.643,29.81-70.862,54.684
		c-14.765,22.646-31.63,43.91-48.321,65.065c-8.473,10.738-8.224,24.436-12.122,38.049c-2.858,9.976-5.483,14.185,0.419,28.889
		c9.554,23.813,10.295,42.1,31.293,69.14c2.529,1.109,4.967,2.097,7.333,2.992c26.955,10.181,43.988,7.274,67.361,10.434
		c15.7,2.124,19.14-1.452,28.117-6.663c12.244-7.111,25.586-10.221,33.925-21.065c16.426-21.359,32.918-42.916,51.262-62.772
		c20.151-21.815,33.23-47.966,35.683-82.09c1.559-21.698,2.122-28.467-15.88-59.171c-6.041-10.302-10.505-19.701-15.155-28.987
		c-10.134-2.227-20.331-4.249-31.793-7.586C1268.817,1044.647,1262.389,1046.851,1241.733,1053.672z M1327.173,1068.815
		c3.325,7.05,6.704,14.236,11.079,21.993c15.596,27.656,14.943,33.854,13.077,53.7c-2.94,31.218-15.301,55.379-33.951,75.727
		c-16.977,18.526-32.322,38.563-47.601,58.419c-7.757,10.08-19.863,13.203-31.067,19.956c-8.209,4.95-11.388,8.29-25.516,6.685
		c-22.46-2.553-38.538,1.064-65.627-10.051c-4.088-8.071-6.497-15.515-8.592-22.969l-0.195-0.041
		c-2.173-7.754-4.017-15.522-7.04-24.017c-4.823-13.549-2.246-17.6,0.774-27.067c4.122-12.919,4.441-25.749,12.643-36.154
		l0.124-0.159l0.01-0.015c4.012-5.091,8.034-10.19,12.036-15.31c12.066-15.447,23.936-31.109,34.76-47.45
		c2.01-3.038,4.107-5.985,6.295-8.85c15.089-19.834,34.553-35.477,61.028-45.428c19.218-7.22,25.201-9.545,56.149-1.593
		C1319.587,1067.226,1323.419,1068.057,1327.173,1068.815z"/>
	<path style="fill:#525D62;" d="M1338.252,1090.808c-4.375-7.757-7.754-14.943-11.079-21.993c-3.754-0.758-7.586-1.589-11.613-2.624
		c-11.057-2.841-18.899-4.351-25.325-4.814l-0.036,0.236c2.521,0.183,5.186,0.47,8.256,0.994c1.644,3.128,3.337,6.29,5.276,9.598
		c15.952,27.203,15.452,33.201,14.073,52.424c-2.173,30.231-13.761,53.401-31.613,72.726
		c-16.251,17.593-30.863,36.689-45.416,55.613c-7.386,9.608-19.208,12.36-30.056,18.66c-7.951,4.619-10.999,7.786-24.908,5.903
		c-16.736-2.263-29.832-1.055-46.835-5.257c2.095,7.455,4.504,14.899,8.592,22.969c27.089,11.116,43.167,7.498,65.627,10.051
		c14.127,1.605,17.306-1.735,25.516-6.685c11.203-6.753,23.31-9.876,31.067-19.956c15.279-19.856,30.624-39.893,47.601-58.419
		c18.65-20.348,31.011-44.509,33.951-75.727C1353.195,1124.661,1353.848,1118.464,1338.252,1090.808z"/>
	<path style="fill:#95A3AA;" d="M1210.72,1271.628c10.848-6.3,22.67-9.052,30.056-18.66c14.553-18.923,29.165-38.019,45.416-55.613
		c17.851-19.325,29.44-42.495,31.613-72.726c1.379-19.223,1.878-25.221-14.073-52.424c-1.939-3.308-3.632-6.47-5.276-9.598
		c-17.15-2.931-24.131-0.304-39.177,5.35c-26.399,9.92-45.824,25.5-60.894,45.255c-2.188,2.865-4.285,5.812-6.295,8.85
		c-10.824,16.341-22.695,32.003-34.76,47.45c-4.005,5.125-8.029,10.229-12.047,15.325l-0.124,0.159
		c-8.202,10.404-8.521,23.235-12.643,36.154c-3.02,9.466-5.598,13.517-0.774,27.067c3.023,8.495,4.867,16.263,7.04,24.017
		l0.195,0.041c17.004,4.202,30.1,2.994,46.835,5.257C1199.721,1279.414,1202.769,1276.247,1210.72,1271.628z"/>
	<path style="fill:#525D62;" d="M686.683,1724.658c-6.068-2.141-12.701-3.267-18.587-5.827c-2.846-1.24-5.308-3.193-8.324-3.812
		c10.253,11.318,27.123,23.552,26.709,36.875c-4.901-2.456-6.658-7.165-10.875-10.224c-4.774-3.462-8.921-4.197-14.931-5.527
		c-16.005-3.545-34.027-8.11-48.385-14.658c3.54,4.426,8.214,8.28,12.419,12.421c6.368,6.27,7.486,12.984,12.01,19.603
		c7.371,10.782,16.896,22.134,33.661,26c31.354,7.231,59.751-9.422,89.32-10.589c-14.785-2.529-37.759-21.532-45.101-26.066
		C704.854,1736.836,698.728,1728.911,686.683,1724.658z"/>
	<path style="fill:#525D62;" d="M1457.48,1557.898c-7.525,3.856-14.987,8.984-22.585,12.358c-3.673,1.632-7.401,2.38-10.865,4.631
		c17.52-0.726,42.353-6.726,50.251,3.659c-6.526,2.57-11.257,0.614-17.467,2.112c-7.028,1.696-11.713,4.875-18.667,9.286
		c-18.524,11.749-39.742,24.544-58.468,32.553c6.373,0.137,13.545-1.174,20.417-1.849c10.407-1.023,15.739,3.018,24.483,3.917
		c14.246,1.466,31.045,1.42,50.543-10.767c36.47-22.799,55.011-60.884,84.414-88.382c-16.645,11.413-51.929,17.817-62.243,21.02
		C1483.604,1550.69,1472.41,1550.252,1457.48,1557.898z"/>
	<path style="fill:#9DACB4;" d="M1394.483,1871.798c-7.408-12.704-16.097-24.945-25.99-35.839
		c-4.799-5.284-10.032-9.737-16.273-13.306c-5.264-3.011-10.794-5.522-16.029-8.585c-5.354-3.131-10.02-7.065-14.762-11.031
		c-4.889-4.087-9.839-8.148-15.416-11.276c-5.291-2.969-10.984-5.221-16.765-7.059c-5.216-0.877-10.405-1.903-15.452-2.99
		l-5.486-1.171c-17.174-3.601-35.61-6.144-54.794-7.562c-2.607-0.192-5.325-0.334-8.024-0.484c-2.531,0.833-5.043,1.72-7.535,2.633
		c-18.209,6.682-38.511,18.516-58.217,11.001c-5.248-2.003-10.222-4.746-15.598-6.412c-5.939-1.839-11.769-1.776-17.718,0.034
		c-5.956,1.812-11.43,4.813-17.016,7.5c-5.983,2.879-12.202,5.306-18.312,7.903c-25.671,10.911-51.286,22.385-73.812,39.079
		c-16.12,11.944-31.442,25.686-42.312,42.719c-2.027,3.177-3.805,6.46-5.471,9.79c7.625-5.566,15.355-10.802,22.67-15.742
		c8.336-5.63,16.207-10.943,22.879-16.034c72.183-55.086,161.069-61.205,222.928-56.646c52.877,3.9,140.046,19.238,175.82,76.534
		c4.796,7.683,8.665,16.11,11.406,25.374c0.545,1.839,0.962,3.712,1.315,5.603c0.477-4.621-0.884-9.547-2.341-13.781
		C1401.74,1884.965,1398.252,1878.259,1394.483,1871.798z"/>
	<path style="fill:#95A3AA;" d="M380.665,1673.004c-1.506-4.407-3.895-8.867-7.303-13.637c-1.805-2.529-3.885-5.126-6.358-7.944
		c-5.998-6.828-13.211-13.469-22.053-20.3c-3.81-2.943-7.825-5.849-12.271-8.879c-1.016-0.694-2.066-1.367-3.116-2.042
		c-3.53-2.266-7.535-4.833-10.899-8.4c-1.069-1.133-2.09-2.378-3.035-3.698c-3.116-4.363-5.028-8.957-6.877-13.401
		c-1.033-2.487-2.01-4.833-3.13-6.952c-0.702-1.325-1.508-2.631-2.4-3.879c-1.396-1.954-3.052-3.844-4.926-5.615
		c-1.313-1.243-2.704-2.412-4.092-3.584c-2.68-2.258-5.449-4.597-7.995-7.503c-0.821-0.94-1.591-1.922-2.316-2.935
		c-2.69-3.764-4.655-7.873-6.39-11.496l-0.889-1.852c-1.147-2.36-2.268-4.733-3.389-7.108c-1.342-2.84-2.685-5.681-4.07-8.497
		c-0.706-1.432-1.462-2.843-2.217-4.256c-1.856-3.479-3.778-7.075-5.216-11.184c-1.634-4.68-2.631-9.365-3.593-13.898l-0.368-1.727
		c-1.832-8.526-5.14-16.273-10.407-24.382c-2.648-4.076-5.52-8.438-8.587-12.733c-3.109-4.348-6-8.039-8.841-11.282
		c-9.588-10.943-22.906-18.141-39.586-21.398c-11.427-2.232-22.894-3.04-33.678-2.497l0.007-0.017
		c-3.462,0.171-6.843,0.499-10.141,0.945l-1.228,0.185c-3.206,0.47-6.339,1.048-9.326,1.801c-1.642,0.412-3.264,0.889-4.864,1.427
		c-2.444,0.823-4.819,1.839-7.157,2.95c-2.256,1.074-4.478,2.237-6.621,3.573c-4.655,7.45-7.305,15.671-8.085,25.055
		c-0.216,2.607-0.472,5.691-0.558,8.767c-0.029,1.026-0.039,2.049-0.024,3.057c0.066,4.025,0.558,7.756,1.969,10.051
		c1.559,2.54,3.264,5.013,5.069,7.627c2.499,3.62,5.084,7.364,7.408,11.508c1.111,1.981,2.378,3.959,3.873,6.049
		c1.961,2.748,4.107,5.403,6.382,8.215l2.458,3.052c0.76,0.952,1.474,1.907,2.151,2.86c1.072,1.498,2.059,2.989,3.026,4.455
		c0.816,1.24,1.617,2.458,2.463,3.642c1.659,2.321,3.131,3.961,4.775,5.274c0.548,0.436,1.116,0.838,1.715,1.216
		c1.735,1.096,3.303,2.244,4.743,3.432c4.324,3.559,7.505,7.462,10.607,11.267c1.537,1.883,2.989,3.663,4.589,5.423
		c3.293,3.623,7.091,6.662,11.237,9.359c1.381,0.898,2.804,1.761,4.258,2.592c5.82,3.323,12.176,6.173,18.711,9.104
		c2.032,0.911,4.073,1.827,6.115,2.762c31.447,14.414,52.443,30.017,66.078,49.101c1.82,2.546,3.511,5.169,5.065,7.854
		c1.554,2.685,2.972,5.428,4.241,8.209c0.972,2.134,2.012,4.19,3.118,6.195c3.313,6.015,7.194,11.583,11.442,17.535l1.406,1.961
		l1.437,2.01l2.302,3.242c3.505,4.974,5.669,10.341,7.264,15.598c0.957,3.154,1.713,6.27,2.431,9.237
		c0.38,1.576,0.755,3.128,1.153,4.65c1.184,4.566,2.546,8.843,4.743,12.577c0.945,1.605,1.835,3.25,2.675,4.919
		c2.524,5.006,4.641,10.234,6.702,15.332c3.323,8.214,6.46,15.971,10.982,22.302c1.262,1.766,2.545,3.303,3.929,4.704
		c4.638,4.699,11.971,9.164,18.017,11.274c2.017,0.701,3.888,1.142,5.471,1.242c0.986,0.063,1.956,0.158,2.901,0.278
		c-0.653-1.413-1.252-2.936-1.752-4.566l-0.036-0.156c-0.414-1.379-0.75-2.782-1.008-4.205l-0.142-1.048
		c-0.18-1.149-0.348-2.302-0.445-3.466l-0.039-0.814c-0.088-1.262-0.151-2.526-0.156-3.79l0.008-0.358
		c0-1.418,0.036-2.831,0.117-4.232c0.317-5.615,1.174-11.02,1.912-15.603c0.617-3.842,1.415-7.625,2.19-11.286
		c1.418-6.706,2.755-13.043,2.879-19.067c0.134-6.621,0.921-12.007,2.548-17.467c0.37-1.245,0.755-2.49,1.142-3.732
		c0.775-2.5,1.505-4.862,2.1-7.179C382.382,1682.985,382.307,1677.815,380.665,1673.004z"/>
	<path style="fill:#525D62;" d="M371.571,1785.781L371.571,1785.781c-0.653-1.413-1.252-2.936-1.752-4.566l-0.036-0.156
		c-0.414-1.379-0.75-2.782-1.008-4.205l-0.142-1.048c-0.18-1.149-0.348-2.302-0.445-3.466l-0.039-0.814
		c-0.088-1.262-0.151-2.526-0.156-3.79l0.008-0.358c0-1.418,0.036-2.831,0.117-4.232v-0.002c-5.556-2.168-11.961-6.354-15.936-10.76
		c-1.233-1.361-2.358-2.86-3.445-4.575c-3.893-6.151-6.336-13.668-8.923-21.627c-2.139-6.588-4.353-13.399-7.525-19.632
		c-2.456-4.831-3.393-10.59-4.385-16.684c-1.245-7.657-2.658-16.334-7.478-24.061l-1.981-3.152l-1.24-1.951l-1.21-1.908
		c-4.88-7.707-9.169-14.76-12.281-23.033c-2.029-5.398-4.645-10.643-7.778-15.591c-11.742-18.543-30.885-33.783-60.246-47.963
		c-1.907-0.921-3.815-1.823-5.715-2.719c-12.215-5.771-23.754-11.22-31.525-20.619c-1.413-1.71-2.685-3.442-4.027-5.274
		c-3.618-4.933-7.357-10.034-13.742-14.322c-2.207-1.481-3.883-3.313-5.788-6.322c-0.728-1.15-1.41-2.331-2.107-3.535
		c-0.824-1.425-1.664-2.872-2.585-4.331c-0.587-0.923-1.203-1.851-1.868-2.777l-2.146-2.967c-1.985-2.736-3.861-5.318-5.552-7.986
		c-1.286-2.031-2.36-3.954-3.286-5.876c-1.932-4.02-4.148-7.656-6.29-11.172c-1.549-2.541-3.011-4.94-4.327-7.408
		c-2.378-4.458-0.75-14.426,0.346-21.135c1.459-8.943,4.616-16.77,9.593-23.856c-3.462,0.171-6.843,0.499-10.141,0.945l-1.228,0.185
		c-3.206,0.47-6.339,1.048-9.326,1.801c-1.642,0.412-3.264,0.889-4.864,1.427c-2.444,0.823-4.819,1.839-7.157,2.95
		c-2.256,1.074-4.478,2.237-6.621,3.573c-4.655,7.45-7.305,15.671-8.085,25.055c-0.216,2.607-0.472,5.691-0.558,8.767
		c-0.029,1.026-0.039,2.049-0.024,3.057c0.066,4.025,0.558,7.756,1.969,10.051c1.559,2.54,3.264,5.013,5.069,7.627
		c2.499,3.62,5.084,7.364,7.408,11.508c1.111,1.981,2.378,3.959,3.873,6.049c1.961,2.748,4.107,5.403,6.382,8.215l2.458,3.052
		c0.76,0.952,1.474,1.907,2.151,2.86c1.072,1.498,2.059,2.989,3.026,4.455c0.816,1.24,1.617,2.458,2.463,3.642
		c1.659,2.321,3.131,3.961,4.775,5.274c0.548,0.436,1.116,0.838,1.715,1.216c1.735,1.096,3.303,2.244,4.743,3.432
		c4.324,3.559,7.505,7.462,10.607,11.267c1.537,1.883,2.989,3.663,4.589,5.423c3.293,3.623,7.091,6.662,11.237,9.359
		c1.381,0.898,2.804,1.761,4.258,2.592c5.82,3.323,12.176,6.173,18.711,9.104c2.032,0.911,4.073,1.827,6.115,2.762
		c31.447,14.414,52.443,30.017,66.078,49.101c1.82,2.546,3.511,5.169,5.065,7.854c1.554,2.685,2.972,5.428,4.241,8.209
		c0.972,2.134,2.012,4.19,3.118,6.195c3.313,6.015,7.194,11.583,11.442,17.535l1.406,1.961l1.437,2.01l2.302,3.242
		c3.505,4.974,5.669,10.341,7.264,15.598c0.957,3.154,1.713,6.27,2.431,9.237c0.38,1.576,0.755,3.128,1.153,4.65
		c1.184,4.566,2.546,8.843,4.743,12.577c0.945,1.605,1.835,3.25,2.675,4.919c2.524,5.006,4.641,10.234,6.702,15.332
		c3.323,8.214,6.46,15.971,10.982,22.302c1.262,1.766,2.545,3.303,3.929,4.704c4.638,4.699,11.971,9.164,18.017,11.274
		c2.017,0.701,3.888,1.142,5.471,1.242C369.656,1785.567,370.626,1785.662,371.571,1785.781z"/>
	<path style="fill:#95A3AA;" d="M1387.092,1905.589c-0.514-1.737-1.089-3.457-1.715-5.152c-0.533-1.44-1.121-2.857-1.729-4.266
		l-0.268-0.655c-1.439-3.24-3.084-6.385-4.916-9.42l-0.005-0.01l-0.609-1.052c-31.87-51.057-114.716-64.441-161.261-67.873
		c-58.597-4.322-142.609,1.333-210.078,52.823c-7.106,5.423-15.201,10.889-23.771,16.675
		c-28.158,19.013-63.201,42.675-67.388,70.514c-0.378,2.526-0.57,4.894-0.619,7.137c-0.036,1.788,0.058,3.464,0.229,5.074
		c0.066,0.612,0.177,1.184,0.273,1.771c0.183,1.13,0.424,2.21,0.721,3.237c0.139,0.485,0.275,0.977,0.441,1.44
		c0.507,1.418,1.094,2.762,1.841,3.959c4.76,7.627,15.567,12.857,32.122,15.547c22.341,3.632,35.162-2.039,54.568-10.621
		c6.421-2.838,13.695-6.056,21.791-9.062c36.443-13.532,73.661,1.624,105.686,16.891c32.448,15.471,51.379,20.662,84.626,12.757
		c17.164-4.08,30.906-2.297,44.195-0.572c3.182,0.414,6.47,0.843,9.942,1.206c15.293,1.61,33.021-3.201,49.897-8.639
		C1353.877,1986.726,1397.414,1940.465,1387.092,1905.589z"/>
	<path style="fill:#525D62;" d="M1385.377,1900.436c-0.533-1.44-1.121-2.857-1.729-4.266l-0.268-0.655
		c-1.439-3.24-3.084-6.385-4.916-9.42l-0.005-0.01c-4.95,30.617-36.982,64.076-63.103,73.866
		c-16.606,6.222-34.088,11.856-49.44,10.965c-3.483-0.203-6.789-0.475-9.985-0.738c-13.357-1.101-27.167-2.239-44.121,2.641
		c-32.84,9.452-51.993,5.152-85.13-8.782c-32.704-13.752-70.589-27.148-106.36-11.925c-7.944,3.381-15.062,6.938-21.343,10.073
		c-18.981,9.481-31.522,15.746-54.009,13.164c-14.285-1.639-24.404-5.357-30.234-11.04c-0.036,1.788,0.058,3.464,0.229,5.074
		c0.066,0.612,0.177,1.184,0.273,1.771c0.183,1.13,0.424,2.21,0.721,3.237c0.139,0.485,0.275,0.977,0.441,1.44
		c0.507,1.418,1.094,2.762,1.841,3.959c4.76,7.627,15.567,12.857,32.122,15.547c22.341,3.632,35.162-2.039,54.568-10.621
		c6.421-2.838,13.695-6.056,21.791-9.062c36.443-13.532,73.661,1.624,105.686,16.891c32.448,15.471,51.379,20.662,84.626,12.757
		c17.164-4.08,30.906-2.297,44.195-0.572c3.182,0.414,6.47,0.843,9.942,1.206c15.293,1.61,33.021-3.201,49.897-8.639
		c32.814-10.572,76.351-56.833,66.029-91.71C1386.578,1903.852,1386.003,1902.132,1385.377,1900.436z"/>
</g>
</svg>
