<?xml version="1.0"?>
<svg width="32" height="32" xmlns="http://www.w3.org/2000/svg" xmlns:svg="http://www.w3.org/2000/svg" xmlns:xlink="http://www.w3.org/1999/xlink">
 <filter color-interpolation-filters="sRGB" filterUnits="userSpaceOnUse" height="7" id="a" width="1.25" x="3" y="4.5">
  <feFlood flood-opacity="0" result="BackgroundImageFix"/>
  <feBlend in="SourceGraphic" in2="BackgroundImageFix"/>
  <feGaussianBlur result="effect1_foregroundBlur_31_1501" stdDeviation="0.25"/>
 </filter>

 <filter color-interpolation-filters="sRGB" filterUnits="userSpaceOnUse" height="7" id="b" width="1.25" x="28" y="4.5">
  <feFlood flood-opacity="0" result="BackgroundImageFix"/>
  <feBlend in="SourceGraphic" in2="BackgroundImageFix"/>
  <feGaussianBlur result="effect1_foregroundBlur_31_1501" stdDeviation="0.25"/>
 </filter>
 <radialGradient cx="0" cy="0" gradientTransform="matrix(-18.49992792 14.50006189 -14.50006189 -18.49992792 25 11.5)" gradientUnits="userSpaceOnUse" id="c" r="1">
  <stop offset="0" stop-color="#eeebf0"/>
  <stop offset="0.49" stop-color="#d1bee3"/>
  <stop offset="1" stop-color="#d0bce2"/>
 </radialGradient>
 <linearGradient id="d" x1="1" x2="0" y1="0.5" y2="0.5">
  <stop offset="0" stop-color="#d5b2c0" stop-opacity="0"/>
  <stop offset="1" stop-color="#b4878d"/>
 </linearGradient>
 <linearGradient id="e" x1="0.5" x2="0.5" y1="0.5" y2="1.17">
  <stop offset="0" stop-color="#b17edb" stop-opacity="0"/>
  <stop offset="1" stop-color="#a56bd6"/>
 </linearGradient>
 <radialGradient cx="0" cy="0" gradientTransform="matrix(5.00000221 -.49999994 1.91110718 19.11108239 25 13.5)" gradientUnits="userSpaceOnUse" id="f" r="1">
  <stop offset="0" stop-color="#f0eaf6"/>
  <stop offset="1" stop-color="#e7e0ef" stop-opacity="0"/>
 </radialGradient>
 <linearGradient id="g">
  <stop offset="0" stop-color="#ea248a"/>
  <stop offset="1" stop-color="#df2232"/>
 </linearGradient>
 <linearGradient id="h" x1="Infinity" x2="Infinity" xlink:href="#g" y1="0" y2="1"/>
 <linearGradient id="i" x1="0.5" x2="0.5" y1="0" y2="1">
  <stop offset="0" stop-color="#e93273"/>
  <stop offset="1" stop-color="#d21844"/>
 </linearGradient>
 <linearGradient id="j" x1="0.5" x2="0.5" y1="0.91" y2="0.16">
  <stop offset="0.01" stop-color="#443e75"/>
  <stop offset="1" stop-color="#2f1a3b"/>
 </linearGradient>
 <linearGradient id="k" x1="0.5" x2="0.5" y1="0.9" y2="-0.04">
  <stop offset="0.01" stop-color="#39325e"/>
  <stop offset="1" stop-color="#2b1831"/>
 </linearGradient>
 <linearGradient id="l">
  <stop offset="0" stop-color="#ff6c82"/>
  <stop offset="0.44" stop-color="#ff2455"/>
  <stop offset="1" stop-color="#d9206c"/>
 </linearGradient>
 <radialGradient cx="0" cy="0" gradientTransform="matrix(-.49999082 1.9999994 -1.9999994 -.49999082 4 3)" gradientUnits="userSpaceOnUse" id="m" r="1" xlink:href="#l"/>
 <linearGradient id="n" x1="Infinity" x2="Infinity" xlink:href="#g" y1="0" y2="1"/>
 <radialGradient cx="0" cy="0" gradientTransform="matrix(-.51665758 2.06666766 -2.06666766 -.51665758 29.0167 3.03333)" gradientUnits="userSpaceOnUse" id="o" r="1" xlink:href="#l"/>
 <linearGradient id="p">
  <stop offset="0" stop-color="#322649"/>
  <stop offset="1" stop-color="#342950" stop-opacity="0"/>
 </linearGradient>
 <radialGradient cx="0" cy="0" gradientTransform="matrix(-2.49999965 .50000299 -.68427676 -3.42136284 9.5 15)" gradientUnits="userSpaceOnUse" id="q" r="1" xlink:href="#p"/>
 <radialGradient cx="0" cy="0" gradientTransform="matrix(-2.49999965 .50000299 -.68427676 -3.42136284 21 15)" gradientUnits="userSpaceOnUse" id="r" r="1" xlink:href="#p"/>
 <linearGradient id="s" x1="0.5" x2="0.35" y1="0" y2="1.17">
  <stop offset="0" stop-color="#ffce2b"/>
  <stop offset="1" stop-color="#d9862d"/>
 </linearGradient>
 <radialGradient cx="0" cy="0" gradientTransform="matrix(0 3 -10 0 16 4)" gradientUnits="userSpaceOnUse" id="t" r="1">
  <stop offset="0.43" stop-color="#ca7e29" stop-opacity="0"/>
  <stop offset="1" stop-color="#673f13"/>
 </radialGradient>
 <linearGradient id="u" x1="0.5" x2="0.5" y1="0" y2="1">
  <stop offset="0" stop-color="#ff30aa"/>
  <stop offset="1" stop-color="#ff2353"/>
 </linearGradient>
 <linearGradient id="v">
  <stop offset="0" stop-color="#29b6fe"/>
  <stop offset="1" stop-color="#1769a8"/>
 </linearGradient>
 <linearGradient id="w" x1="1" x2="0" xlink:href="#v" y1="0.4" y2="0.4"/>
 <linearGradient id="x">
  <stop offset="0" stop-color="#54c8ff"/>
  <stop offset="1" stop-color="#54c8ff" stop-opacity="0"/>
 </linearGradient>
 <radialGradient cx="0" cy="0" gradientTransform="matrix(0 2.5 -1.14393 0 11 13.5)" gradientUnits="userSpaceOnUse" id="y" r="1" xlink:href="#x"/>
 <linearGradient id="z" x1="1" x2="0" xlink:href="#v" y1="0.4" y2="0.4"/>
 <radialGradient cx="0" cy="0" gradientTransform="matrix(0 2.5 -1.14393 0 22.5 13.5)" gradientUnits="userSpaceOnUse" id="A" r="1" xlink:href="#x"/>
 <linearGradient id="B">
  <stop offset="0" stop-color="#ff96cb"/>
  <stop offset="1" stop-color="#ff6db7" stop-opacity="0"/>
 </linearGradient>
 <linearGradient id="C" x1="-Infinity" x2="-Infinity" xlink:href="#B" y1="0.33" y2="0.67"/>
 <linearGradient id="D" x1="-Infinity" x2="-Infinity" xlink:href="#B" y1="0.33" y2="0.67"/>
 <radialGradient cx="0" cy="0" gradientTransform="matrix(0 1.5 -1 0 29 13.5)" gradientUnits="userSpaceOnUse" id="E" r="1">
  <stop offset="0" stop-color="#ff72c1"/>
  <stop offset="1" stop-color="#ff6ebf" stop-opacity="0"/>
 </radialGradient>
 <radialGradient cx="0" cy="0" gradientTransform="matrix(0 4.5 -.55944 0 29 16.5)" gradientUnits="userSpaceOnUse" id="F" r="1">
  <stop offset="0" stop-color="#ff4b9c"/>
  <stop offset="1" stop-color="#ff73c1" stop-opacity="0"/>
 </radialGradient>
 <radialGradient cx="0" cy="0" gradientTransform="matrix(0 1 -1 0 20 4)" gradientUnits="userSpaceOnUse" id="G" r="1">
  <stop offset="0" stop-color="#ffea60"/>
  <stop offset="1" stop-color="#ffef66" stop-opacity="0"/>
 </radialGradient>
 <g class="layer">
  <title>Layer 1</title>
  <path d="m22.05,30l-12.1,0c-3.29,0 -5.95,-2.66 -5.95,-5.95l0,-12.02c0,-3.33 2.7,-6.03 6.03,-6.03l11.95,0c3.32,0 6.02,2.7 6.02,6.03l0,12.03c0,3.28 -2.66,5.94 -5.95,5.94z" fill="url(#c)" id="svg_1"/>
  <path d="m4,12c0,-3.31 2.69,-6 6,-6l2,0l0,24l-2,0c-3.31,0 -6,-2.69 -6,-6l0,-12z" fill="url(#d)" id="svg_2"/>
  <path d="m4,24l24,0c0,3.31 -2.69,6 -6,6l-12,0c-3.31,0 -6,-2.69 -6,-6z" fill="url(#e)" id="svg_3"/>
  <path d="m20,6l2,0c3.31,0 6,2.69 6,6l0,12c0,3.31 -2.69,6 -6,6l-2,0l0,-24z" fill="url(#f)" id="svg_4"/>
  <path d="m3.5,3.95l0,9.1" id="svg_5" stroke="url(#h)" stroke-miterlimit="10"/>
  <path d="m4,12l0,11c-1.1,0 -2,-0.9 -2,-2l0,-7c0,-1.1 0.9,-2 2,-2z" fill="url(#i)" id="svg_6"/>
  <path d="m22.75,18.5l-13.5,0c-2.34,0 -4.25,-1.91 -4.25,-4.25s1.91,-4.25 4.25,-4.25l13.5,0c2.34,0 4.25,1.91 4.25,4.25c0,2.33 -1.92,4.25 -4.25,4.25z" fill="url(#j)" id="svg_7"/>
  <path d="m18.01,26.01l-3.81,0c-0.61,0 -1.11,-0.67 -1.11,-1.5s0.5,-1.5 1.11,-1.5l3.81,0c0.61,0 1.11,0.67 1.11,1.5s-0.5,1.5 -1.11,1.5z" fill="url(#k)" id="svg_8" transform="rotate(90.232 16.1001 24.5053)"/>
  <path d="m3.5,5c0.83,0 1.5,-0.67 1.5,-1.5s-0.67,-1.5 -1.5,-1.5s-1.5,0.67 -1.5,1.5s0.67,1.5 1.5,1.5z" fill="url(#m)" id="svg_9"/>
  <path d="m28.5,4l0,9.09" id="svg_10" stroke="url(#n)" stroke-miterlimit="10"/>
  <path d="m28.5,5.1c0.86,0 1.55,-0.69 1.55,-1.55s-0.69,-1.55 -1.55,-1.55c-0.86,0 -1.55,0.69 -1.55,1.55s0.69,1.55 1.55,1.55z" fill="url(#o)" id="svg_11"/>
  <rect fill="url(#q)" height="6" id="svg_12" rx="2" width="4.5" x="7" y="12"/>
  <rect fill="url(#r)" height="6" id="svg_13" rx="2" width="4.5" x="18.5" y="12"/>
  <rect fill="url(#s)" height="3" id="svg_14" rx="1.5" width="10" x="11" y="3"/>
  <rect fill="url(#t)" height="3" id="svg_15" rx="1.5" width="10" x="11" y="3"/>
  <path d="m28,22.94l0,-11.01c1.1,0 2,0.9 2,2l0,7.01c0,1.1 -0.9,2 -2,2z" fill="url(#u)" id="svg_16"/>
  <rect fill="url(#w)" height="0.9" id="svg_17" rx="1.25" width="2.5" x="9" y="14.2"/>
  <rect fill="url(#z)" height="0.9" id="svg_19" rx="1.25" width="2.5" x="20.5" y="14.1"/>
  <g filter="url(#a)" id="svg_21">
   <path d="m3.63,5l0,6" id="svg_22" stroke="url(#C)" stroke-width="0.25"/>
  </g>
  <g filter="url(#b)" id="svg_23">
   <path d="m28.63,5l0,6" id="svg_24" stroke="url(#D)" stroke-width="0.25"/>
  </g>
  <ellipse cx="29" cy="13.5" fill="url(#E)" id="svg_25" rx="1" ry="1.5"/>
  <ellipse cx="29" cy="16.5" fill="url(#F)" id="svg_26" rx="1" ry="4.5"/>
  <path clip-rule="evenodd" d="m19.78,3.03c0.6,0.11 1.08,0.59 1.19,1.19c-0.1,0.45 -0.49,0.78 -0.97,0.78c-0.55,0 -1,-0.45 -1,-1c0,-0.48 0.33,-0.87 0.78,-0.97z" fill="url(#G)" fill-rule="evenodd" id="svg_27"/>
 </g>
</svg>